<?xml version="1.0" standalone="no"?>
<!DOCTYPE svg PUBLIC "-//W3C//DTD SVG 20010904//EN"
<!-- File: public/harp.svg -->
 "http://www.w3.org/TR/2001/REC-SVG-20010904/DTD/svg10.dtd">
<svg version="1.0" xmlns="http://www.w3.org/2000/svg"
 width="572.000000pt" height="572.000000pt" viewBox="0 0 572.000000 572.000000"
 preserveAspectRatio="xMidYMid meet">

<g transform="translate(0.000000,572.000000) scale(0.100000,-0.100000)"
fill="#000000" stroke="none">
<path d="M1430 5346 c-157 -36 -269 -96 -370 -196 -140 -138 -184 -252 -178
-454 3 -121 4 -121 48 -206 150 -288 471 -369 678 -170 65 63 92 125 92 213 0
63 -4 79 -29 118 -33 52 -75 74 -124 65 -40 -7 -64 -31 -92 -90 -18 -36 -24
-41 -58 -44 -93 -8 -147 101 -98 196 43 83 120 124 245 130 98 5 172 -8 254
-44 l52 -23 0 -2044 c0 -2042 0 -2043 20 -2065 28 -30 75 -29 92 1 15 27 28
816 27 1677 -2 1447 2 2331 10 2328 5 -1 40 -32 77 -67 l69 -65 5 -1814 5
-1815 26 -19 c31 -24 62 -17 84 16 13 20 16 238 19 1730 2 939 6 1710 9 1712
3 3 36 -41 73 -97 l69 -101 3 -1504 4 -1504 28 -20 c35 -25 51 -25 81 -1 l24
19 6 1384 c3 760 6 1385 7 1388 1 3 11 -10 23 -29 11 -19 45 -64 75 -101 l54
-67 0 -1167 c0 -1153 0 -1166 20 -1186 26 -26 60 -25 94 1 l26 20 0 1119 0
1119 73 -35 c107 -50 199 -67 332 -60 118 6 177 19 266 59 l57 26 4 -646 3
-645 24 -19 c30 -24 52 -24 84 1 l26 20 3 713 3 712 38 59 c20 33 46 85 58
115 30 80 45 216 33 291 -6 33 -9 60 -8 60 2 0 27 -34 57 -75 116 -158 217
-402 253 -610 24 -139 24 -385 0 -529 -36 -219 -97 -398 -226 -661 -228 -465
-623 -903 -1245 -1382 -162 -125 -409 -303 -525 -378 -192 -124 -635 -385
-654 -385 -3 0 -6 837 -6 1860 l0 1860 -124 0 -125 0 -5 -52 c-3 -29 -10 -143
-16 -253 -6 -110 -29 -459 -50 -775 -22 -316 -45 -647 -50 -735 -22 -351 -44
-658 -105 -1481 -14 -182 -25 -337 -25 -343 0 -8 -53 -11 -178 -11 -161 0
-181 -2 -195 -18 -21 -23 -22 -75 -3 -91 11 -9 515 -14 2104 -18 l2089 -6 16
24 c22 31 22 72 -1 92 -17 15 -87 17 -753 19 l-734 3 130 98 c621 469 1009
1005 1170 1620 149 569 115 1130 -101 1645 -179 428 -486 785 -814 950 -111
55 -184 73 -302 73 -196 2 -344 -75 -432 -224 -133 -224 8 -515 259 -534 118
-10 238 67 266 170 20 74 -14 157 -76 183 -41 17 -68 8 -109 -35 -40 -41 -76
-41 -111 1 -23 27 -26 39 -22 76 5 50 47 100 105 128 45 21 172 15 220 -10 84
-44 166 -169 178 -272 9 -72 -12 -201 -42 -262 -65 -133 -203 -231 -356 -253
-254 -37 -479 112 -612 403 -19 41 -64 159 -101 264 -80 224 -145 355 -242
484 -169 225 -361 367 -584 430 -93 27 -288 35 -369 16z"/>
<path d="M3932 3873 c-21 -18 -21 -22 -24 -451 l-3 -434 24 -19 c31 -25 43
-24 80 7 l31 26 0 422 c0 390 -1 424 -17 439 -30 26 -67 30 -91 10z"/>
<path d="M3069 3466 c-13 -6 -26 -25 -31 -43 -4 -17 -7 -408 -6 -869 l3 -837
26 -19 c30 -22 54 -19 87 13 l22 20 0 849 c0 848 0 849 -21 869 -28 26 -53 31
-80 17z"/>
<path d="M3351 3461 c-28 -28 -33 -183 -29 -852 3 -541 4 -568 22 -588 24 -26
57 -27 87 -2 l24 19 3 701 3 701 -33 20 c-41 25 -53 25 -77 1z"/>
<path d="M1072 154 c-27 -18 -28 -44 -4 -73 l17 -22 1671 -2 c1631 -2 1672 -2
1693 17 25 23 27 58 5 80 -14 14 -181 16 -1687 16 -1498 0 -1675 -2 -1695 -16z"/>
</g>
</svg>