<!-- File: src/assets/harperalpha.svg -->

<svg id="logosandtypes_com" xmlns="http://www.w3.org/2000/svg" viewBox="0 0 150 150.2"><path d="M0 .2h150v150H0V.2z" fill="none"/><path d="M62.4 82.3V71.4C45.6 75.6 29.5 81 15.3 91.5c-1-3.3-1.7-6.7-2-10.1-1.5-14.8 1.6-28.6 9.8-41C33.5 25.1 47.9 16 66.2 13.6c30.3-4 58.9 14.4 67.2 43.6 6.3 22.4 1.5 42.5-14.3 59.7-10 10.9-22.6 17.1-37.3 18.8-11.7 1.4-22.9-.4-33.4-5.8-4.3-2.3-8-5.6-10.6-9.7-4.3-6.6-3.5-13.2.2-19.8 2.5-4.4 6.1-7.4 10.3-10.1s8.3-4.9 12.7-7.1c.4-.4.9-.6 1.4-.9zm67.3-2.3c0 .2.1.2.2.1s0-.2-.1-.2c-4.3-3.8-9.5-5.6-15-7.3V32.2h-20v34.6c2.1-.1 4 .3 6.1.3V38.4h7.8v55.9h-8V77.6c-2.1.1-4 .1-6 .3v22.6h20.1V75.8c5.4.5 10.1 2.3 14.9 4.2zM50.2 93.3v16.1h21.6V79.6c11.2-3.7 22.6-4.9 34.3-4.4v-4.7c-5.7-1.2-11.5-1.2-17.2-1.5s-11.4.7-17.2 1V20.4H50.4V71c2-.7 4-1.3 6-1.7V26.6h9v76.7h-9.1V89.8l-6.1 3.5z" fill="#010101"/></svg>