<?xml version="1.0" standalone="no"?>
<!DOCTYPE svg PUBLIC "-//W3C//DTD SVG 20010904//EN" "http://www.w3.org/TR/2001/REC-SVG-20010904/DTD/svg10.dtd">
<svg version="1.0" xmlns="http://www.w3.org/2000/svg"
    width="1200.000000pt" height="1200.000000pt" viewBox="0 0 1200.000000 1200.000000"
    preserveAspectRatio="xMidYMid meet">

    <g transform="translate(0.000000,1200.000000) scale(0.100000,-0.100000)"
        fill="#000000" stroke="none">
        <path
            d="M3238 11611 c-3 -10 -95 -29 -185 -38 -29 -3 -53 -9 -53 -14 0 -5
-16 -9 -35 -9 -19 0 -35 -4 -35 -10 0 -5 -20 -10 -45 -10 -25 0 -45 -4 -45
-10 0 -5 -9 -10 -20 -10 -11 0 -20 -4 -20 -10 0 -5 -12 -12 -27 -16 -45 -9
-83 -26 -83 -35 0 -5 -11 -9 -25 -9 -14 0 -25 -4 -25 -10 0 -5 -9 -10 -20 -10
-11 0 -20 -4 -20 -10 0 -5 -7 -10 -15 -10 -9 0 -28 -11 -43 -25 -15 -14 -32
-25 -39 -25 -7 0 -13 -4 -13 -10 0 -5 -9 -10 -20 -10 -11 0 -20 -4 -20 -10 0
-5 -5 -10 -10 -10 -6 0 -22 -10 -35 -22 -62 -57 -75 -68 -80 -68 -8 0 -75 -68
-75 -75 0 -8 -27 -35 -35 -35 -10 0 -55 -48 -55 -60 0 -5 -4 -10 -10 -10 -5 0
-10 -9 -10 -20 0 -11 -5 -20 -10 -20 -18 0 -60 -48 -60 -67 0 -10 -9 -25 -20
-33 -11 -8 -20 -22 -20 -32 0 -10 -4 -18 -10 -18 -5 0 -10 -7 -10 -15 0 -8
-11 -25 -25 -39 -14 -14 -25 -32 -25 -41 0 -8 -4 -15 -10 -15 -5 0 -10 -11
-10 -25 0 -14 -4 -25 -10 -25 -5 0 -10 -13 -10 -30 0 -16 -4 -30 -9 -30 -10 0
-15 -27 -32 -172 -7 -54 -16 -98 -21 -98 -4 0 -8 -70 -8 -155 0 -85 4 -155 8
-155 5 0 13 -35 20 -77 15 -111 23 -143 33 -143 5 0 9 -9 9 -20 0 -11 5 -20
10 -20 6 0 10 -11 10 -25 0 -14 5 -25 10 -25 6 0 10 -9 10 -20 0 -11 4 -20 8
-20 5 0 17 -19 27 -42 10 -24 27 -50 37 -59 10 -9 18 -24 18 -33 0 -9 10 -28
23 -41 56 -62 67 -75 67 -80 0 -8 68 -75 76 -75 3 0 18 -13 32 -28 15 -16 35
-31 45 -35 9 -3 17 -11 17 -17 0 -5 6 -10 13 -10 7 0 19 -9 27 -20 8 -11 22
-20 32 -20 10 0 18 -4 18 -9 0 -5 11 -12 25 -15 14 -4 25 -11 25 -16 0 -6 9
-10 20 -10 11 0 20 -4 20 -10 0 -5 9 -10 20 -10 11 0 20 -4 20 -10 0 -5 16
-10 35 -10 19 0 35 -4 35 -8 0 -11 106 -32 194 -39 39 -3 74 -11 79 -17 5 -8
9 -8 15 0 4 6 43 14 86 18 44 4 87 11 97 17 10 5 27 9 38 9 12 0 21 5 21 10 0
6 16 10 35 10 19 0 35 5 35 10 0 6 9 10 20 10 11 0 20 5 20 10 0 6 9 10 20 10
11 0 20 7 20 15 0 8 7 15 15 15 8 0 15 5 15 10 0 6 8 10 18 10 10 0 24 9 32
20 8 11 22 20 32 20 10 0 18 7 18 15 0 8 6 15 13 15 6 1 28 19 47 41 19 22 45
52 58 65 12 14 22 29 22 34 0 6 5 10 10 10 6 0 10 9 10 20 0 11 5 20 10 20 6
0 10 9 10 20 0 11 4 20 8 20 10 0 28 51 38 103 3 20 10 37 15 37 5 0 9 54 9
120 0 72 -4 120 -10 120 -5 0 -12 12 -16 28 -8 38 -26 74 -46 93 -10 9 -18 24
-18 33 0 9 -4 16 -10 16 -5 0 -10 5 -10 11 0 14 -25 39 -39 39 -6 0 -11 5 -11
10 0 6 -9 10 -20 10 -11 0 -20 5 -20 10 0 6 -13 10 -30 10 -16 0 -30 5 -30 10
0 6 -7 10 -15 10 -8 0 -15 -4 -15 -10 0 -5 -20 -10 -45 -10 -25 0 -45 -4 -45
-10 0 -5 -7 -10 -15 -10 -25 0 -96 -76 -106 -114 -6 -20 -14 -36 -19 -36 -6 0
-10 -14 -10 -31 0 -69 -110 -122 -204 -98 -26 6 -50 18 -53 25 -3 8 -14 14
-25 14 -22 0 -78 54 -78 76 0 8 -4 14 -10 14 -5 0 -10 9 -10 20 0 11 -4 20
-10 20 -6 0 -10 52 -10 135 0 83 4 135 10 135 6 0 10 9 10 20 0 11 5 20 10 20
6 0 10 7 10 15 0 8 7 15 15 15 8 0 15 7 15 15 0 19 97 115 116 115 8 0 14 5
14 10 0 6 9 10 20 10 11 0 20 5 20 10 0 6 11 10 25 10 15 0 25 6 25 15 0 14
56 35 93 35 9 0 17 5 17 10 0 6 25 10 55 10 30 0 55 5 55 10 0 6 55 10 145 10
90 0 145 -4 145 -10 0 -5 25 -10 55 -10 30 0 55 -4 55 -9 0 -5 18 -12 40 -15
22 -3 58 -9 81 -12 22 -3 43 -12 46 -20 3 -8 16 -14 29 -14 13 0 24 -4 24 -10
0 -5 9 -10 20 -10 11 0 20 -4 20 -10 0 -5 11 -10 25 -10 14 0 25 -4 25 -9 0
-5 9 -13 20 -16 20 -6 20 -15 20 -4456 0 -2582 4 -4449 9 -4449 5 0 11 -32 13
-72 2 -44 9 -73 16 -76 7 -2 12 -10 12 -19 0 -17 17 -35 47 -51 58 -31 143 6
143 61 0 14 4 27 9 29 25 9 31 844 34 4557 3 2959 6 3856 15 3859 9 3 12 57
12 198 0 187 1 194 20 194 11 0 20 -4 20 -10 0 -5 5 -10 10 -10 14 0 60 -46
60 -59 0 -6 11 -13 25 -17 14 -3 25 -10 25 -15 0 -11 66 -79 75 -79 8 0 35
-27 35 -35 0 -8 47 -55 55 -55 36 0 35 118 35 -4020 l0 -3992 30 -28 c16 -15
30 -33 30 -38 0 -24 91 -32 139 -12 45 18 53 50 59 223 2 86 9 157 13 157 5 0
9 1560 9 3575 0 2377 3 3575 10 3575 6 0 10 30 10 70 0 39 2 70 5 70 10 0 45
-40 45 -51 0 -6 14 -24 30 -39 17 -16 35 -42 41 -59 6 -17 17 -31 25 -31 8 0
14 -9 14 -20 0 -11 5 -20 10 -20 6 0 10 -7 10 -15 0 -8 5 -15 10 -15 6 0 10
-9 10 -20 0 -11 5 -20 11 -20 16 0 39 -26 39 -44 0 -9 5 -16 10 -16 6 0 10 -7
10 -15 0 -8 5 -15 10 -15 6 0 10 -9 10 -20 0 -11 6 -20 13 -20 37 0 37 23 37
-2412 0 -1565 3 -2358 10 -2358 6 0 10 -16 10 -35 0 -19 -4 -35 -10 -35 -15 0
-12 -67 3 -73 9 -4 8 -8 -3 -17 -11 -9 -12 -13 -2 -17 9 -4 12 -188 12 -874 0
-573 3 -869 10 -869 6 0 10 -6 10 -14 0 -8 14 -19 30 -25 17 -5 30 -15 30 -20
0 -6 6 -11 14 -11 8 0 17 -6 20 -12 5 -10 7 -10 12 0 3 6 19 12 35 12 17 0 29
5 29 13 0 7 10 17 23 22 12 6 23 20 25 32 2 13 8 23 13 23 5 0 9 1034 9 2680
0 1780 3 2680 10 2680 6 0 10 132 10 375 l0 375 25 0 c18 0 25 -5 25 -20 0
-11 5 -20 10 -20 6 0 10 -9 10 -20 0 -11 5 -20 10 -20 6 0 10 -6 10 -13 0 -8
11 -20 25 -27 14 -7 25 -21 25 -29 0 -9 9 -23 20 -31 11 -8 20 -20 20 -26 0
-7 7 -14 15 -18 8 -3 15 -10 15 -17 0 -6 14 -24 30 -39 17 -15 30 -33 30 -39
0 -6 5 -11 10 -11 6 0 10 -9 10 -20 0 -11 6 -20 14 -20 8 0 18 -9 21 -20 3
-11 13 -20 21 -20 12 0 14 -332 14 -2464 0 -1962 3 -2465 13 -2469 9 -4 8 -8
-3 -17 -11 -9 -12 -13 -2 -17 8 -3 12 -36 12 -114 0 -66 4 -109 10 -109 6 0
10 -9 10 -21 0 -26 23 -49 49 -49 12 0 21 -4 21 -10 0 -5 14 -10 30 -10 17 0
30 5 30 10 0 6 9 10 20 10 20 0 70 43 70 60 0 6 5 10 10 10 7 0 10 808 10
2405 0 1597 3 2405 10 2405 6 0 10 30 10 70 0 74 11 88 44 55 8 -8 24 -15 35
-15 12 0 21 -4 21 -10 0 -5 9 -10 20 -10 11 0 20 -4 20 -10 0 -5 9 -10 20 -10
11 0 20 -4 20 -10 0 -5 11 -10 25 -10 14 0 25 -4 25 -10 0 -5 9 -10 19 -10 11
0 26 -7 35 -15 8 -8 24 -15 35 -15 12 0 21 -4 21 -10 0 -5 18 -10 40 -10 22 0
40 -4 40 -10 0 -5 20 -10 45 -10 25 0 45 -4 45 -9 0 -11 167 -25 300 -25 133
0 300 14 300 25 0 5 25 9 55 9 30 0 55 5 55 10 0 6 20 10 45 10 25 0 45 5 45
10 0 6 14 10 30 10 17 0 30 4 30 9 0 4 20 16 45 25 25 10 45 22 45 27 0 5 11
9 25 9 14 0 25 5 25 10 0 6 9 10 20 10 11 0 20 5 20 10 0 6 9 10 20 10 11 0
20 5 20 10 0 6 11 10 25 10 l25 0 0 -1425 c0 -943 3 -1425 10 -1425 6 0 10 -7
10 -15 0 -9 11 -27 25 -40 20 -21 34 -25 85 -25 33 0 60 4 60 10 0 6 5 10 10
10 6 0 22 11 35 25 l25 24 0 616 c0 403 3 615 10 615 14 0 12 37 -2 44 -10 5
-10 7 0 12 15 7 18 314 2 314 -6 0 -10 77 -10 210 0 133 4 210 10 210 7 0 10
171 10 493 0 500 8 652 35 673 8 6 15 16 15 23 0 6 5 11 10 11 6 0 10 9 10 20
0 11 5 20 10 20 6 0 10 7 10 15 0 8 4 15 8 15 5 0 17 18 27 40 10 22 22 40 27
40 4 0 8 9 8 20 0 11 5 20 10 20 6 0 10 11 10 25 0 14 5 25 10 25 6 0 10 14
10 30 0 17 4 30 9 30 5 0 16 30 25 67 8 37 20 69 26 71 5 2 10 28 10 58 0 30
5 54 10 54 6 0 10 83 10 230 0 147 -4 230 -10 230 -5 0 -10 20 -10 45 0 49 8
56 30 25 8 -11 20 -20 27 -20 7 0 13 -9 13 -20 0 -11 5 -20 10 -20 6 0 10 -5
10 -10 0 -6 10 -22 23 -35 35 -38 47 -54 47 -62 0 -5 9 -15 20 -23 11 -8 20
-23 20 -33 0 -10 10 -29 23 -42 39 -42 47 -54 47 -70 0 -8 5 -15 10 -15 6 0
10 -7 10 -15 0 -8 5 -15 10 -15 6 0 10 -9 10 -20 0 -11 4 -20 8 -20 5 0 17
-19 27 -42 10 -24 27 -50 37 -59 10 -9 18 -26 18 -38 0 -11 5 -21 10 -21 6 0
10 -13 10 -30 0 -20 5 -30 15 -30 8 0 15 -9 15 -20 0 -24 21 -70 32 -70 4 0 8
-11 8 -25 0 -14 5 -25 10 -25 6 0 10 -13 10 -30 0 -16 5 -30 10 -30 6 0 10
-11 10 -24 0 -13 6 -26 14 -29 7 -3 16 -19 20 -36 3 -17 9 -44 12 -61 4 -16
10 -30 15 -30 5 0 9 -13 9 -30 0 -16 5 -30 10 -30 6 0 10 -16 10 -35 0 -19 5
-35 10 -35 6 0 10 -20 10 -44 0 -24 5 -46 11 -48 11 -4 20 -44 35 -150 4 -27
11 -48 15 -48 5 0 9 -29 9 -65 0 -37 4 -65 10 -65 6 0 10 -37 10 -90 0 -53 4
-90 10 -90 6 0 10 -123 10 -350 0 -227 -4 -350 -10 -350 -6 0 -10 -37 -10 -90
0 -53 -4 -90 -10 -90 -6 0 -10 -32 -10 -75 0 -41 -4 -75 -8 -75 -5 0 -15 -43
-22 -96 -9 -59 -19 -98 -27 -101 -8 -3 -13 -22 -13 -49 0 -24 -4 -44 -10 -44
-5 0 -10 -20 -10 -45 0 -25 -4 -45 -10 -45 -5 0 -10 -20 -10 -45 0 -25 -4 -45
-9 -45 -11 0 -28 -43 -37 -92 -3 -21 -10 -38 -15 -38 -5 0 -9 -16 -9 -35 0
-19 -4 -35 -10 -35 -5 0 -10 -9 -10 -20 0 -11 -4 -20 -10 -20 -5 0 -10 -16
-10 -35 0 -19 -4 -35 -9 -35 -5 0 -17 -25 -26 -55 -8 -30 -20 -55 -25 -55 -6
0 -10 -13 -10 -30 0 -16 -4 -30 -10 -30 -5 0 -10 -11 -10 -25 0 -14 -4 -25
-10 -25 -5 0 -10 -9 -10 -20 0 -11 -4 -20 -9 -20 -4 0 -16 -25 -26 -55 -9 -30
-21 -55 -26 -55 -5 0 -9 -11 -9 -25 0 -14 -4 -25 -10 -25 -5 0 -10 -9 -10 -20
0 -11 -4 -20 -10 -20 -5 0 -10 -9 -10 -21 0 -11 -6 -27 -12 -34 -32 -35 -38
-45 -38 -60 0 -8 -4 -15 -10 -15 -5 0 -10 -11 -10 -25 0 -14 -4 -25 -10 -25
-5 0 -10 -9 -10 -20 0 -11 -3 -20 -7 -20 -5 0 -16 -20 -26 -45 -11 -25 -23
-45 -28 -45 -5 0 -9 -9 -9 -20 0 -11 -4 -20 -10 -20 -5 0 -10 -11 -10 -25 0
-14 -4 -25 -10 -25 -5 0 -10 -9 -10 -20 0 -11 -4 -20 -10 -20 -5 0 -10 -7 -10
-15 0 -8 -11 -25 -25 -39 -14 -14 -25 -32 -25 -41 0 -8 -4 -15 -10 -15 -5 0
-10 -10 -10 -23 0 -12 -9 -29 -20 -37 -11 -8 -20 -18 -20 -23 0 -7 -9 -20 -37
-52 -7 -7 -13 -20 -13 -27 0 -8 -9 -20 -20 -28 -11 -8 -20 -25 -20 -37 0 -13
-6 -23 -14 -23 -8 0 -18 -9 -21 -20 -3 -11 -13 -20 -21 -20 -8 0 -14 -9 -14
-20 0 -11 -4 -20 -10 -20 -5 0 -10 -7 -10 -15 0 -8 -4 -15 -10 -15 -5 0 -10
-9 -10 -20 0 -11 -6 -20 -14 -20 -8 0 -19 -15 -25 -33 -6 -18 -20 -39 -31 -47
-11 -8 -20 -20 -20 -27 0 -7 -4 -13 -10 -13 -5 0 -10 -9 -10 -20 0 -11 -5 -20
-10 -20 -17 0 -60 -47 -60 -65 0 -8 -4 -15 -10 -15 -5 0 -10 -5 -10 -10 0 -6
-10 -22 -22 -35 -58 -63 -68 -75 -68 -81 0 -3 -13 -19 -30 -34 -16 -15 -30
-33 -30 -39 0 -7 -7 -14 -15 -17 -8 -4 -15 -11 -15 -16 0 -6 -13 -23 -30 -38
-16 -15 -30 -31 -30 -35 0 -10 -27 -35 -39 -35 -6 0 -11 -7 -11 -15 0 -9 -34
-49 -75 -90 -41 -41 -75 -77 -75 -80 0 -8 -27 -35 -35 -35 -10 0 -35 -28 -35
-39 0 -6 -54 -65 -120 -131 -66 -65 -120 -124 -120 -130 0 -5 -5 -10 -10 -10
-6 0 -31 -20 -55 -45 -25 -24 -45 -49 -45 -55 0 -5 -6 -10 -13 -10 -7 0 -19
-9 -27 -20 -8 -11 -22 -20 -32 -20 -10 0 -18 -5 -18 -10 0 -11 -65 -80 -75
-80 -8 0 -35 -27 -35 -35 0 -8 -47 -55 -55 -55 -4 0 -40 -34 -81 -75 -41 -41
-81 -75 -89 -75 -8 0 -15 -7 -15 -15 0 -8 -5 -15 -10 -15 -6 0 -30 -19 -55
-42 -54 -53 -72 -68 -81 -68 -3 0 -19 -14 -34 -30 -15 -16 -33 -30 -39 -30 -6
0 -11 -5 -11 -10 0 -6 -8 -14 -17 -17 -10 -4 -30 -19 -45 -35 -14 -15 -29 -28
-32 -28 -4 0 -18 -10 -31 -22 -37 -35 -54 -48 -61 -48 -3 0 -19 -13 -34 -30
-15 -16 -35 -30 -44 -30 -9 0 -16 -7 -16 -15 0 -8 -7 -15 -15 -15 -8 0 -20 -9
-27 -20 -7 -11 -20 -20 -28 -20 -9 0 -22 -9 -30 -20 -8 -11 -19 -20 -26 -20
-6 0 -17 -11 -24 -25 -7 -14 -21 -25 -29 -25 -9 0 -23 -9 -31 -20 -8 -11 -18
-20 -22 -20 -4 0 -18 -10 -32 -23 -63 -56 -76 -67 -81 -67 -3 0 -17 -11 -30
-24 -13 -14 -34 -27 -45 -31 -11 -3 -20 -13 -20 -21 0 -8 -9 -14 -20 -14 -12
0 -36 -15 -55 -32 -49 -47 -63 -58 -75 -58 -5 0 -10 -4 -10 -10 0 -5 -9 -10
-20 -10 -11 0 -20 -4 -20 -10 0 -5 -5 -10 -10 -10 -6 0 -22 -10 -35 -23 -65
-59 -75 -67 -85 -67 -5 0 -10 -4 -10 -10 0 -5 -7 -10 -15 -10 -18 0 -65 -43
-65 -60 0 -5 -10 -10 -23 -10 -12 0 -29 -9 -37 -20 -8 -11 -22 -20 -32 -20
-10 0 -18 -6 -18 -14 0 -8 -11 -17 -25 -20 -13 -3 -35 -17 -49 -31 -14 -14
-30 -25 -36 -25 -5 0 -10 -4 -10 -10 0 -5 -9 -10 -20 -10 -11 0 -20 -6 -20
-14 0 -7 -14 -19 -30 -26 -17 -7 -30 -16 -30 -21 0 -5 -6 -9 -13 -9 -7 0 -19
-9 -27 -20 -8 -11 -20 -20 -28 -20 -7 0 -25 -11 -40 -25 -15 -14 -31 -25 -37
-25 -6 0 -17 -9 -25 -20 -8 -11 -23 -20 -33 -20 -10 0 -28 -10 -41 -23 -13
-13 -37 -29 -55 -36 -17 -8 -31 -17 -31 -22 0 -5 -6 -9 -13 -9 -7 0 -19 -9
-27 -20 -8 -11 -22 -20 -32 -20 -10 0 -18 -4 -18 -10 0 -5 -11 -12 -25 -16
-14 -3 -25 -10 -25 -15 0 -5 -9 -9 -20 -9 -11 0 -20 -4 -20 -10 0 -5 -7 -10
-15 -10 -8 0 -15 -4 -15 -10 0 -5 -9 -10 -20 -10 -11 0 -20 -6 -20 -14 0 -8
-16 -20 -35 -27 -19 -7 -35 -17 -35 -21 0 -4 -9 -8 -20 -8 -11 0 -20 -4 -20
-10 0 -5 -9 -10 -20 -10 -11 0 -20 -4 -20 -10 0 -5 -6 -10 -14 -10 -8 0 -16
-7 -20 -15 -3 -8 -11 -15 -18 -15 -8 0 -20 -9 -28 -20 -8 -11 -24 -20 -35 -20
-11 0 -27 -9 -35 -20 -8 -11 -22 -20 -32 -20 -10 0 -18 -4 -18 -9 0 -5 -16
-15 -35 -21 -20 -7 -47 -23 -60 -36 -13 -13 -33 -24 -45 -24 -11 0 -20 -4 -20
-10 0 -5 -7 -10 -15 -10 -9 0 -27 -11 -41 -25 -14 -14 -31 -25 -39 -25 -8 0
-15 -4 -15 -10 0 -5 -9 -10 -20 -10 -11 0 -20 -4 -20 -10 0 -5 -9 -10 -20 -10
-11 0 -20 -4 -20 -10 0 -5 -5 -10 -11 -10 -6 0 -17 -6 -24 -13 -36 -31 -46
-37 -65 -37 -11 0 -20 -4 -20 -10 0 -5 -8 -10 -18 -10 -10 0 -24 -9 -31 -19
-8 -11 -34 -27 -58 -37 -23 -10 -43 -22 -43 -26 0 -4 -9 -8 -20 -8 -11 0 -20
-4 -20 -10 0 -5 -11 -10 -25 -10 -14 0 -25 -4 -25 -10 0 -5 -9 -10 -20 -10
-11 0 -20 -4 -20 -10 0 -5 -11 -10 -25 -10 l-25 0 0 4115 0 4115 -258 0 -259
0 -7 -162 c-4 -90 -11 -164 -16 -166 -6 -2 -10 -79 -10 -188 0 -116 -4 -184
-10 -184 -6 0 -10 -70 -10 -190 0 -120 -4 -190 -10 -190 -6 0 -10 -65 -10
-175 0 -96 -4 -175 -9 -175 -4 0 -11 -60 -14 -132 -15 -311 -29 -503 -38 -506
-5 -2 -9 -71 -9 -158 0 -96 -4 -154 -10 -154 -6 0 -10 -62 -10 -165 0 -103 -4
-165 -10 -165 -6 0 -10 -58 -10 -155 0 -85 -4 -155 -9 -155 -4 0 -11 -60 -14
-132 -15 -311 -29 -503 -38 -506 -5 -2 -9 -75 -9 -168 0 -103 -4 -164 -10
-164 -6 0 -10 -62 -10 -165 0 -103 -4 -165 -10 -165 -6 0 -10 -70 -10 -190 0
-104 -4 -190 -9 -190 -4 0 -11 -62 -14 -138 -12 -276 -28 -477 -37 -480 -6 -2
-10 -70 -10 -168 0 -103 -4 -164 -10 -164 -6 0 -10 -55 -10 -145 0 -90 -4
-145 -10 -145 -6 0 -10 -53 -10 -140 0 -77 -4 -140 -9 -140 -4 0 -11 -55 -14
-123 -13 -287 -29 -492 -38 -495 -5 -2 -9 -68 -9 -148 0 -89 -4 -144 -10 -144
-6 0 -10 -58 -10 -155 0 -97 -4 -155 -10 -155 -6 0 -10 -58 -10 -155 0 -97 -4
-155 -10 -155 -6 0 -10 -41 -10 -102 0 -57 -3 -127 -6 -155 l-7 -53 -218 0
c-139 0 -219 -4 -219 -10 0 -6 -68 -10 -185 -10 -117 0 -185 -4 -185 -10 0 -5
-6 -10 -14 -10 -8 0 -20 -16 -26 -35 -6 -19 -16 -35 -21 -35 -5 0 -9 -18 -9
-40 0 -27 4 -40 14 -40 7 0 16 -9 19 -20 5 -18 14 -20 75 -20 54 0 75 -4 88
-17 13 -13 19 -14 22 -5 5 15 352 18 352 2 0 -7 1460 -10 4360 -10 3026 0
4360 3 4360 10 0 6 10 22 23 35 43 46 47 54 47 90 0 23 -5 35 -14 35 -8 0 -17
11 -20 25 -4 14 -13 25 -21 25 -8 0 -15 5 -15 10 0 7 -532 10 -1575 10 -1043
0 -1575 3 -1575 10 0 6 -25 10 -55 10 -33 0 -55 4 -55 11 0 6 18 27 40 47 58
54 68 62 80 62 5 0 10 5 10 10 0 6 9 10 20 10 11 0 20 5 20 10 0 6 4 10 10 10
5 0 20 10 34 23 63 56 76 67 81 67 3 0 17 11 30 24 13 14 34 27 45 31 11 3 20
13 20 21 0 8 9 14 20 14 11 0 20 5 20 10 0 6 5 10 10 10 6 0 26 15 45 32 43
42 63 58 70 58 3 0 24 18 46 40 23 22 45 40 50 40 4 0 19 11 33 25 14 14 28
25 31 25 10 0 55 49 55 60 0 5 7 10 15 10 17 0 65 43 65 58 0 6 11 13 25 16
14 4 25 11 25 17 0 11 25 39 35 39 6 0 30 21 100 87 24 24 49 43 55 43 5 0 10
5 10 10 0 11 85 100 95 100 10 0 55 49 55 60 0 5 5 10 10 10 11 0 60 45 60 55
0 10 69 75 80 75 5 0 10 9 10 20 0 11 5 20 10 20 6 0 10 5 10 11 0 11 25 39
35 39 10 0 75 69 75 80 0 5 5 10 10 10 6 0 10 9 10 20 0 11 4 20 10 20 10 0
60 47 60 56 0 3 14 19 30 34 17 15 30 31 30 34 0 8 15 26 58 71 17 19 32 43
32 55 0 11 5 20 10 20 14 0 60 46 60 60 0 5 5 10 10 10 6 0 10 9 10 20 0 11 6
20 14 20 8 0 18 9 21 20 4 11 17 32 31 45 13 13 24 29 24 35 0 5 5 10 10 10 6
0 10 9 10 20 0 11 6 20 14 20 8 0 19 14 25 31 6 17 24 43 41 59 16 15 30 35
30 44 0 9 5 16 10 16 6 0 10 5 10 11 0 6 6 17 12 24 32 36 38 45 38 62 0 10 9
25 20 33 11 8 20 22 20 32 0 10 5 18 10 18 6 0 10 5 10 11 0 6 6 17 12 24 32
35 38 45 38 60 0 8 5 15 10 15 6 0 10 7 10 15 0 8 5 15 10 15 6 0 10 9 10 20
0 11 4 20 9 20 5 0 17 20 27 45 9 25 21 45 25 45 5 0 9 9 9 20 0 11 5 20 10
20 6 0 10 9 10 20 0 11 5 20 10 20 6 0 10 7 10 15 0 8 5 15 10 15 6 0 10 9 10
20 0 11 7 20 15 20 9 0 15 9 15 25 0 14 5 25 10 25 6 0 10 9 10 20 0 11 5 20
10 20 6 0 10 16 10 35 0 19 4 35 9 35 5 0 16 18 25 40 9 22 20 40 26 40 5 0
10 11 10 25 0 14 5 25 10 25 6 0 10 14 10 30 0 17 5 30 10 30 6 0 10 11 10 25
0 14 4 25 9 25 5 0 17 25 26 55 8 30 20 55 25 55 6 0 10 16 10 35 0 19 5 35
10 35 6 0 10 9 10 20 0 11 5 20 10 20 6 0 10 16 10 35 0 19 4 35 8 35 7 0 15
26 39 113 2 9 9 17 14 17 5 0 9 14 9 30 0 17 5 30 10 30 6 0 10 20 10 45 0 25
5 45 10 45 6 0 10 16 10 35 0 19 4 35 8 35 5 0 16 41 26 90 11 50 23 90 27 90
5 0 9 18 9 40 0 22 5 40 10 40 6 0 10 25 10 55 0 30 5 55 10 55 6 0 10 25 10
55 0 30 4 55 9 55 4 0 11 27 15 60 4 33 11 60 16 60 6 0 10 34 10 75 0 43 4
75 10 75 6 0 10 37 10 90 0 53 4 90 10 90 6 0 10 46 10 119 0 76 4 121 11 123
14 5 14 811 -1 816 -6 2 -10 48 -10 113 0 66 -4 109 -10 109 -6 0 -10 32 -10
75 0 43 -4 75 -10 75 -6 0 -10 33 -10 79 0 45 -4 81 -10 83 -6 2 -13 27 -17
56 -3 28 -10 52 -14 52 -5 0 -9 25 -9 55 0 30 -4 55 -10 55 -5 0 -10 20 -10
45 0 25 -4 45 -10 45 -5 0 -10 18 -10 40 0 22 -4 40 -9 40 -7 0 -20 43 -38
133 -3 15 -9 27 -14 27 -5 0 -9 20 -9 45 0 25 -4 45 -10 45 -5 0 -10 14 -10
30 0 17 -4 30 -10 30 -5 0 -10 14 -10 31 0 17 -7 37 -15 45 -8 9 -15 26 -15
39 0 13 -4 27 -10 30 -5 3 -10 17 -10 31 0 13 -4 24 -10 24 -5 0 -10 16 -10
35 0 19 -4 35 -10 35 -5 0 -10 9 -10 20 0 11 -4 20 -10 20 -5 0 -10 16 -10 35
0 19 -4 35 -8 35 -11 0 -42 66 -42 90 0 11 -4 20 -10 20 -5 0 -10 9 -10 20 0
11 -4 20 -10 20 -5 0 -10 11 -10 25 0 14 -4 25 -10 25 -5 0 -10 9 -10 20 0 11
-4 20 -10 20 -5 0 -12 12 -16 28 -9 44 -26 82 -35 82 -5 0 -9 11 -9 25 0 14
-4 25 -10 25 -5 0 -10 9 -10 20 0 11 -4 20 -10 20 -5 0 -10 9 -10 20 0 11 -7
20 -15 20 -8 0 -15 7 -15 15 0 8 -4 15 -10 15 -5 0 -10 9 -10 20 0 11 -4 20
-10 20 -5 0 -10 9 -10 20 0 11 -4 20 -10 20 -5 0 -10 9 -10 20 0 12 -11 32
-25 46 -14 14 -25 31 -25 39 0 8 -4 15 -10 15 -5 0 -10 9 -10 20 0 11 -4 20
-10 20 -5 0 -10 9 -10 20 0 11 -4 20 -10 20 -5 0 -10 6 -10 14 0 8 -7 16 -15
20 -8 3 -15 11 -15 18 0 8 -9 20 -20 28 -11 8 -20 24 -20 35 0 11 -9 27 -20
35 -11 8 -20 20 -20 28 0 7 -10 24 -22 37 -36 38 -48 54 -48 62 0 5 -9 15 -20
23 -11 8 -20 22 -20 32 0 10 -6 18 -14 18 -8 0 -17 11 -20 25 -4 14 -11 25
-17 25 -16 0 -39 26 -39 44 0 9 -4 16 -10 16 -5 0 -10 7 -10 15 0 8 -6 15 -14
15 -8 0 -18 9 -21 20 -3 11 -13 20 -21 20 -8 0 -14 9 -14 20 0 11 -4 20 -10
20 -5 0 -10 5 -10 11 0 11 -25 39 -35 39 -7 0 -75 67 -75 75 0 10 -49 55 -60
55 -5 0 -10 6 -10 14 0 8 -9 18 -20 21 -11 3 -20 13 -20 21 0 8 -5 14 -10 14
-11 0 -80 65 -80 75 0 12 -29 35 -44 35 -9 0 -16 5 -16 10 0 6 -7 10 -15 10
-8 0 -15 5 -15 10 0 14 -66 80 -80 80 -5 0 -10 5 -10 10 0 6 -9 10 -20 10 -11
0 -20 5 -20 10 0 14 -46 60 -60 60 -5 0 -10 5 -10 10 0 6 -9 10 -20 10 -11 0
-20 5 -20 10 0 6 -5 10 -10 10 -11 0 -25 10 -65 48 -13 12 -31 22 -40 22 -8 0
-15 5 -15 10 0 6 -7 10 -15 10 -8 0 -15 5 -15 10 0 6 -9 10 -20 10 -11 0 -20
4 -20 9 0 5 -19 16 -42 26 -23 9 -49 25 -59 36 -9 10 -24 19 -33 19 -9 0 -16
5 -16 10 0 6 -11 10 -25 10 -14 0 -25 5 -25 10 0 6 -9 10 -20 10 -11 0 -20 7
-20 15 0 10 -11 15 -35 15 -19 0 -35 5 -35 10 0 6 -13 10 -30 10 -16 0 -30 5
-30 10 0 6 -16 10 -35 10 -19 0 -35 4 -35 8 0 8 -79 25 -172 37 -27 3 -48 10
-48 16 0 5 -69 9 -165 9 -91 0 -165 -4 -165 -9 0 -5 -24 -11 -52 -15 -87 -11
-168 -29 -168 -38 0 -4 -11 -8 -25 -8 -14 0 -25 -4 -25 -10 0 -5 -13 -10 -30
-10 -16 0 -30 -4 -30 -10 0 -5 -11 -10 -24 -10 -13 0 -26 -7 -30 -15 -3 -8
-11 -15 -18 -15 -8 0 -20 -9 -28 -20 -8 -11 -25 -20 -37 -20 -13 0 -23 -4 -23
-10 0 -5 -9 -10 -20 -10 -11 0 -20 -5 -20 -11 0 -11 -25 -39 -35 -39 -7 0
-115 -108 -115 -115 0 -7 -14 -24 -47 -60 -13 -13 -23 -32 -23 -41 0 -9 -8
-24 -18 -33 -25 -21 -42 -55 -42 -80 0 -12 -7 -21 -15 -21 -10 0 -15 -10 -15
-30 0 -16 -4 -30 -10 -30 -5 0 -10 -20 -10 -45 0 -25 -4 -45 -10 -45 -6 0 -10
-55 -10 -145 0 -90 4 -145 10 -145 6 0 10 -20 10 -45 0 -25 5 -45 10 -45 6 0
10 -13 10 -30 0 -16 4 -30 9 -30 4 0 16 -20 25 -45 10 -25 22 -45 27 -45 5 0
9 -10 9 -23 0 -12 9 -29 20 -37 11 -8 20 -22 20 -32 0 -10 7 -18 15 -18 8 0
15 -4 15 -10 0 -13 106 -120 120 -120 5 0 10 -4 10 -8 0 -5 18 -17 40 -27 22
-10 40 -22 40 -27 0 -4 7 -8 15 -8 8 0 15 -4 15 -10 0 -5 14 -10 30 -10 17 0
30 -4 30 -10 0 -5 16 -10 35 -10 19 0 35 -4 35 -9 0 -4 32 -11 72 -15 40 -4
76 -12 80 -19 6 -9 10 -9 16 -1 4 6 42 15 85 19 42 3 77 11 77 16 0 5 14 9 30
9 17 0 30 5 30 10 0 6 11 10 25 10 14 0 25 5 25 10 0 6 9 10 20 10 11 0 20 7
20 15 0 8 5 15 11 15 17 0 135 122 143 148 4 12 12 22 17 22 5 0 9 9 9 20 0
11 5 20 10 20 6 0 10 11 10 25 0 14 5 25 10 25 6 0 10 43 10 110 0 67 -4 110
-10 110 -5 0 -10 9 -10 20 0 11 -4 20 -10 20 -5 0 -10 9 -10 20 0 18 -43 70
-58 70 -4 0 -14 9 -22 20 -8 12 -26 20 -42 20 -15 0 -28 5 -28 10 0 6 -25 10
-55 10 -54 0 -57 -2 -110 -55 -30 -30 -55 -59 -55 -65 0 -5 -7 -10 -15 -10 -8
0 -15 -4 -15 -10 0 -5 -9 -10 -20 -10 -11 0 -20 -4 -20 -10 0 -5 -20 -10 -45
-10 -25 0 -45 5 -45 10 0 6 -9 10 -20 10 -11 0 -20 5 -20 10 0 6 -7 10 -15 10
-8 0 -15 5 -15 11 0 6 -13 23 -28 37 -39 37 -55 99 -46 178 3 36 13 71 20 79
8 7 14 21 14 30 0 9 13 30 30 45 16 15 30 31 30 35 0 9 27 35 37 35 5 0 15 9
23 20 8 11 24 20 36 20 12 0 24 6 27 14 6 14 79 36 121 36 14 0 26 5 26 10 0
6 40 10 100 10 60 0 100 -4 100 -10 0 -5 10 -10 22 -10 47 0 138 -24 138 -37
0 -7 9 -13 20 -13 11 0 20 -4 20 -10 0 -5 8 -10 18 -10 10 0 24 -9 32 -20 8
-11 20 -20 27 -20 7 0 13 -5 13 -11 0 -16 26 -39 44 -39 9 0 16 -4 16 -10 0
-5 11 -20 25 -34 14 -14 25 -29 25 -33 0 -5 9 -15 20 -23 11 -8 20 -24 20 -36
0 -12 10 -26 25 -34 14 -7 25 -22 25 -32 0 -10 5 -18 10 -18 6 0 10 -11 10
-25 0 -14 5 -25 10 -25 6 0 10 -13 10 -29 0 -16 5 -31 10 -33 6 -2 17 -30 25
-63 29 -120 11 -521 -24 -533 -6 -2 -11 -24 -11 -48 0 -24 -4 -44 -10 -44 -5
0 -10 -9 -10 -20 0 -11 -4 -20 -10 -20 -5 0 -10 -9 -10 -21 0 -11 -6 -27 -12
-34 -30 -33 -38 -45 -38 -55 0 -5 -4 -10 -10 -10 -5 0 -10 -7 -10 -15 0 -9
-10 -27 -22 -41 -13 -14 -33 -36 -45 -50 -13 -14 -23 -27 -23 -30 0 -6 -48
-54 -54 -54 -7 0 -56 -49 -56 -56 0 -12 -29 -34 -44 -34 -9 0 -16 -4 -16 -10
0 -5 -7 -10 -15 -10 -8 0 -15 -4 -15 -8 0 -5 -18 -17 -40 -27 -22 -10 -40 -22
-40 -27 0 -4 -11 -8 -25 -8 -14 0 -25 -4 -25 -10 0 -5 -9 -10 -20 -10 -11 0
-20 -4 -20 -10 0 -5 -11 -10 -25 -10 -14 0 -25 -4 -25 -9 0 -6 -20 -13 -45
-17 -25 -3 -45 -10 -45 -15 0 -5 -20 -9 -45 -9 -25 0 -45 -4 -45 -10 0 -6 -75
-10 -205 -10 -130 0 -205 4 -205 10 0 6 -27 10 -60 10 -33 0 -60 4 -60 10 0 6
-9 10 -19 10 -11 0 -26 7 -35 15 -8 8 -27 15 -43 15 -17 0 -34 8 -43 20 -8 11
-25 20 -37 20 -13 0 -23 5 -23 10 0 6 -7 10 -16 10 -8 0 -22 6 -29 13 -33 29
-45 37 -55 37 -5 0 -10 5 -10 10 0 6 -7 10 -16 10 -18 0 -44 23 -44 39 0 6
-11 13 -25 17 -14 3 -25 12 -25 20 0 8 -7 14 -15 14 -19 0 -205 189 -205 207
0 5 -9 15 -20 23 -11 8 -20 23 -20 33 0 10 -10 29 -22 42 -40 42 -48 54 -48
70 0 8 -4 15 -10 15 -5 0 -10 7 -10 15 0 8 -4 15 -10 15 -5 0 -10 9 -10 20 0
11 -4 20 -9 20 -4 0 -16 20 -25 45 -10 25 -22 45 -27 45 -5 0 -9 11 -9 25 0
14 -4 25 -10 25 -5 0 -10 9 -10 20 0 11 -4 20 -10 20 -5 0 -10 9 -10 20 0 11
-4 20 -10 20 -5 0 -12 12 -16 28 -9 44 -26 82 -35 82 -5 0 -9 16 -9 35 0 19
-4 35 -10 35 -5 0 -10 11 -10 25 0 14 -4 25 -10 25 -5 0 -10 14 -10 30 0 17
-4 30 -9 30 -5 0 -12 8 -14 18 -24 86 -32 112 -39 112 -4 0 -8 16 -8 35 0 19
-4 35 -10 35 -5 0 -10 9 -10 20 0 11 -4 20 -10 20 -5 0 -10 14 -10 31 0 17 -7
37 -15 45 -8 9 -15 26 -15 40 0 13 -4 24 -10 24 -5 0 -10 14 -10 30 0 17 -4
30 -10 30 -5 0 -10 16 -10 35 0 19 -4 35 -10 35 -5 0 -10 9 -10 20 0 11 -4 20
-9 20 -5 0 -12 8 -14 18 -24 86 -32 112 -39 112 -4 0 -8 11 -8 25 0 14 -4 25
-10 25 -5 0 -10 9 -10 20 0 11 -4 20 -10 20 -5 0 -10 11 -10 25 0 14 -4 25 -9
25 -5 0 -17 20 -28 45 -10 25 -21 45 -25 45 -5 0 -8 8 -8 18 0 10 -9 24 -20
32 -11 8 -20 25 -20 37 0 13 -4 23 -9 23 -5 0 -14 14 -21 30 -7 17 -19 30 -26
30 -8 0 -14 10 -14 23 0 12 -9 29 -20 37 -11 8 -20 22 -20 32 0 10 -7 18 -15
18 -8 0 -15 7 -15 15 0 8 -9 20 -20 27 -11 7 -20 20 -20 28 0 9 -9 22 -20 30
-11 8 -20 22 -20 32 0 10 -7 18 -15 18 -8 0 -15 5 -15 11 0 6 -13 24 -30 39
-16 15 -30 37 -30 49 0 12 -6 21 -14 21 -8 0 -18 9 -21 20 -3 11 -13 20 -21
20 -8 0 -14 6 -14 13 0 7 -9 19 -20 27 -11 8 -20 22 -20 32 0 11 -7 18 -20 18
-11 0 -20 5 -20 10 0 6 -7 10 -15 10 -8 0 -15 9 -15 19 0 11 -9 23 -20 26 -11
3 -20 15 -20 26 0 12 -7 19 -20 19 -11 0 -20 5 -20 10 0 6 -7 10 -15 10 -8 0
-15 5 -15 10 0 11 -85 100 -95 100 -7 0 -24 14 -60 48 -13 12 -29 22 -35 22
-5 0 -10 5 -10 10 0 6 -8 10 -18 10 -10 0 -24 9 -32 20 -8 11 -20 20 -27 20
-7 0 -23 11 -37 25 -14 14 -32 25 -41 25 -8 0 -15 5 -15 10 0 6 -9 10 -20 10
-21 0 -31 6 -75 48 -13 12 -37 22 -52 22 -17 0 -34 8 -43 20 -9 13 -26 20 -47
20 -18 0 -33 4 -33 9 0 9 -38 26 -82 35 -16 4 -28 11 -28 16 0 6 -13 10 -30
10 -16 0 -30 5 -30 10 0 6 -16 10 -35 10 -19 0 -35 5 -35 10 0 6 -20 10 -45
10 -25 0 -45 4 -45 9 0 9 -32 14 -175 31 -44 5 -81 14 -83 20 -5 13 -289 14
-294 1z" />
        <path
            d="M8600 8340 c0 -5 -9 -10 -20 -10 -18 0 -20 -7 -20 -65 0 -37 -4 -65
-10 -65 -7 0 -10 -305 -10 -895 0 -590 3 -895 10 -895 6 0 10 -9 10 -20 0 -10
11 -31 25 -45 21 -20 36 -25 75 -25 36 0 50 4 50 14 0 8 11 17 25 20 14 4 25
12 25 19 0 7 9 19 20 27 20 14 20 26 20 948 l0 933 -25 24 c-13 14 -29 25 -35
25 -5 0 -10 5 -10 10 0 6 -28 10 -65 10 -37 0 -65 -4 -65 -10z" />
        <path
            d="M7351 7443 c-44 -8 -71 -47 -71 -103 0 -27 -4 -50 -10 -50 -7 0 -10
-505 -10 -1495 l0 -1496 23 -24 c12 -13 27 -30 34 -37 26 -29 43 -38 68 -38
14 0 25 4 25 9 0 5 16 15 35 21 19 6 35 18 35 26 0 8 5 14 10 14 6 0 10 9 10
20 0 11 5 20 10 20 6 0 10 135 10 385 0 250 4 385 10 385 6 0 10 7 10 15 0 8
-4 15 -10 15 -15 0 -12 57 3 64 10 5 10 7 0 12 -7 3 -13 16 -13 29 0 13 6 26
13 29 10 5 10 7 0 12 -8 3 -13 26 -13 59 0 33 5 56 13 59 10 5 10 7 0 12 -15
7 -18 74 -3 74 6 0 10 9 10 20 0 11 -4 20 -10 20 -5 0 -10 16 -10 35 0 19 5
35 10 35 6 0 10 9 10 20 0 11 -4 20 -10 20 -5 0 -10 20 -10 45 0 25 5 45 10
45 6 0 10 11 10 25 0 14 -4 25 -10 25 -5 0 -10 18 -10 40 0 22 5 40 10 40 6 0
10 7 10 15 0 8 -4 15 -10 15 -7 0 -10 258 -10 755 l0 756 -25 24 c-13 14 -33
25 -44 25 -11 0 -21 4 -23 8 -4 12 -47 20 -77 15z" />
        <path
            d="M6710 7430 c0 -5 -9 -10 -20 -10 -11 0 -20 -4 -20 -10 0 -5 -5 -10
-11 -10 -6 0 -17 -6 -25 -14 -12 -12 -14 -100 -14 -554 0 -423 -3 -541 -12
-545 -10 -4 -10 -6 0 -6 8 -1 12 -24 12 -80 0 -54 -4 -81 -12 -85 -10 -5 -10
-7 0 -12 9 -4 12 -268 12 -1271 0 -1361 -3 -1293 49 -1293 12 0 21 -4 21 -10
0 -5 23 -10 50 -10 28 0 50 5 50 10 0 6 9 10 21 10 22 0 49 22 49 39 0 6 5 11
10 11 7 0 10 637 10 1890 l0 1891 -25 24 c-13 14 -33 25 -45 25 -11 0 -20 5
-20 10 0 6 -18 10 -40 10 -22 0 -40 -4 -40 -10z" />
    </g>
</svg>